<mxfile host="65bd71144e">
    <diagram id="DeaROObW_h7Y9myD4udL" name="Pagina-1">
        <mxGraphModel dx="1104" dy="1729" grid="1" gridSize="10" guides="1" tooltips="1" connect="1" arrows="1" fold="1" page="1" pageScale="1" pageWidth="827" pageHeight="1169" math="0" shadow="0">
            <root>
                <mxCell id="0"/>
                <mxCell id="1" parent="0"/>
                <mxCell id="nHArHDgA-v1Gkju6NFeY-11" value="Utente registrato" style="shape=umlLifeline;participant=umlActor;perimeter=lifelinePerimeter;whiteSpace=wrap;html=1;container=1;collapsible=0;recursiveResize=0;verticalAlign=bottom;spacingTop=36;outlineConnect=0;size=40;rounded=0;shadow=0;glass=0;labelPosition=center;verticalLabelPosition=top;align=center;strokeWidth=1;perimeterSpacing=0;" vertex="1" parent="1">
                    <mxGeometry x="50" y="50" width="20" height="830" as="geometry"/>
                </mxCell>
                <mxCell id="nHArHDgA-v1Gkju6NFeY-20" value="" style="html=1;points=[];perimeter=orthogonalPerimeter;" vertex="1" parent="nHArHDgA-v1Gkju6NFeY-11">
                    <mxGeometry x="5" y="40" width="10" height="790" as="geometry"/>
                </mxCell>
                <mxCell id="23" value="onClickSearch()" style="html=1;verticalAlign=bottom;endArrow=block;entryX=0;entryY=0;" edge="1" target="22" parent="1" source="nHArHDgA-v1Gkju6NFeY-20">
                    <mxGeometry relative="1" as="geometry">
                        <mxPoint x="80" y="121" as="sourcePoint"/>
                    </mxGeometry>
                </mxCell>
                <mxCell id="9sE8CWYjySVi89K2_Rz9-24" value="&lt;span&gt;«boundary»&lt;/span&gt;&lt;br&gt;&lt;b&gt;ExploreUI&lt;/b&gt;" style="shape=umlLifeline;perimeter=lifelinePerimeter;whiteSpace=wrap;html=1;container=1;collapsible=0;recursiveResize=0;outlineConnect=0;rounded=0;shadow=0;glass=0;strokeWidth=1;verticalAlign=top;" vertex="1" parent="1">
                    <mxGeometry x="158" y="41" width="82" height="300" as="geometry"/>
                </mxCell>
                <mxCell id="22" value="" style="html=1;points=[];perimeter=orthogonalPerimeter;" vertex="1" parent="9sE8CWYjySVi89K2_Rz9-24">
                    <mxGeometry x="35" y="80" width="10" height="80" as="geometry"/>
                </mxCell>
                <mxCell id="nHArHDgA-v1Gkju6NFeY-28" value="&lt;span&gt;«control»&lt;/span&gt;&lt;br&gt;&lt;b&gt;SearchUI&lt;/b&gt;" style="shape=umlLifeline;perimeter=lifelinePerimeter;whiteSpace=wrap;html=1;container=1;collapsible=0;recursiveResize=0;outlineConnect=0;" vertex="1" parent="1">
                    <mxGeometry x="880" y="-20" width="100" height="300" as="geometry"/>
                </mxCell>
                <mxCell id="26" value="&lt;span&gt;«control»&lt;/span&gt;&lt;br&gt;&lt;b&gt;SearchItineraryControl&lt;/b&gt;" style="shape=umlLifeline;perimeter=lifelinePerimeter;whiteSpace=wrap;html=1;container=1;collapsible=0;recursiveResize=0;outlineConnect=0;rounded=0;shadow=0;glass=0;strokeWidth=1;verticalAlign=top;" vertex="1" parent="1">
                    <mxGeometry x="280" y="41" width="140" height="739" as="geometry"/>
                </mxCell>
                <mxCell id="28" value="" style="html=1;points=[];perimeter=orthogonalPerimeter;" vertex="1" parent="1">
                    <mxGeometry x="345" y="190" width="10" height="50" as="geometry"/>
                </mxCell>
                <mxCell id="29" value="openSearchUI()" style="html=1;verticalAlign=bottom;endArrow=block;entryX=0;entryY=0;exitX=1.006;exitY=0.869;exitDx=0;exitDy=0;exitPerimeter=0;" edge="1" target="28" parent="1" source="22">
                    <mxGeometry relative="1" as="geometry">
                        <mxPoint x="210" y="190" as="sourcePoint"/>
                    </mxGeometry>
                </mxCell>
                <mxCell id="9sE8CWYjySVi89K2_Rz9-32" value="&lt;span&gt;«boundary»&lt;/span&gt;&lt;br&gt;&lt;b&gt;SearchUI&lt;/b&gt;" style="shape=umlLifeline;perimeter=lifelinePerimeter;whiteSpace=wrap;html=1;container=1;collapsible=0;recursiveResize=0;outlineConnect=0;rounded=0;shadow=0;glass=0;strokeWidth=1;verticalAlign=top;" vertex="1" parent="1">
                    <mxGeometry x="500" y="200" width="82" height="920" as="geometry"/>
                </mxCell>
                <mxCell id="33" value="insertKeyword()" style="html=1;verticalAlign=bottom;endArrow=block;entryX=-0.129;entryY=0.496;entryDx=0;entryDy=0;entryPerimeter=0;" edge="1" parent="1" target="9sE8CWYjySVi89K2_Rz9-33">
                    <mxGeometry width="80" relative="1" as="geometry">
                        <mxPoint x="70" y="529" as="sourcePoint"/>
                        <mxPoint x="158" y="310" as="targetPoint"/>
                    </mxGeometry>
                </mxCell>
                <mxCell id="34" value="&lt;span style=&quot;font-size: 12px ; background-color: rgb(248 , 249 , 250)&quot;&gt;«create»&lt;/span&gt;" style="html=1;verticalAlign=bottom;endArrow=block;exitX=1.067;exitY=0.606;exitDx=0;exitDy=0;exitPerimeter=0;" edge="1" parent="1" source="28">
                    <mxGeometry width="80" relative="1" as="geometry">
                        <mxPoint x="358" y="220" as="sourcePoint"/>
                        <mxPoint x="500" y="220" as="targetPoint"/>
                    </mxGeometry>
                </mxCell>
                <mxCell id="35" value="ALT" style="shape=umlFrame;whiteSpace=wrap;html=1;" vertex="1" parent="1">
                    <mxGeometry x="240" y="400" width="1750" height="710" as="geometry"/>
                </mxCell>
                <mxCell id="nHArHDgA-v1Gkju6NFeY-38" value="OPT" style="shape=umlFrame;whiteSpace=wrap;html=1;" vertex="1" parent="1">
                    <mxGeometry x="280" y="570" width="750" height="350" as="geometry"/>
                </mxCell>
                <mxCell id="9sE8CWYjySVi89K2_Rz9-33" value="" style="html=1;points=[];perimeter=orthogonalPerimeter;" vertex="1" parent="1">
                    <mxGeometry x="536" y="420" width="10" height="220" as="geometry"/>
                </mxCell>
                <mxCell id="nHArHDgA-v1Gkju6NFeY-40" value="[!keyword.empty()]" style="text;html=1;align=center;verticalAlign=middle;resizable=0;points=[];autosize=1;strokeColor=none;fillColor=none;" vertex="1" parent="1">
                    <mxGeometry x="1250" y="420" width="110" height="20" as="geometry"/>
                </mxCell>
                <mxCell id="39" value="[filterButtonClicked]" style="text;html=1;align=center;verticalAlign=middle;resizable=0;points=[];autosize=1;strokeColor=none;fillColor=none;" vertex="1" parent="1">
                    <mxGeometry x="910" y="575" width="120" height="20" as="geometry"/>
                </mxCell>
                <mxCell id="40" value="" style="html=1;points=[];perimeter=orthogonalPerimeter;" vertex="1" parent="1">
                    <mxGeometry x="345" y="600" width="10" height="310" as="geometry"/>
                </mxCell>
                <mxCell id="9sE8CWYjySVi89K2_Rz9-43" value="openFilterSearchUI" style="html=1;verticalAlign=bottom;endArrow=block;endSize=8;strokeWidth=1;endFill=1;exitX=0.059;exitY=0.915;exitDx=0;exitDy=0;exitPerimeter=0;entryX=1.2;entryY=0.162;entryDx=0;entryDy=0;entryPerimeter=0;" edge="1" parent="1">
                    <mxGeometry relative="1" as="geometry">
                        <mxPoint x="537.5899999999997" y="621.3000000000002" as="sourcePoint"/>
                        <mxPoint x="357.99999999999955" y="621.06" as="targetPoint"/>
                    </mxGeometry>
                </mxCell>
                <mxCell id="43" value="&lt;span style=&quot;font-size: 12px ; background-color: rgb(248 , 249 , 250)&quot;&gt;«create»&lt;/span&gt;" style="html=1;verticalAlign=bottom;endArrow=block;" edge="1" parent="1" source="40">
                    <mxGeometry width="80" relative="1" as="geometry">
                        <mxPoint x="370" y="690.3" as="sourcePoint"/>
                        <mxPoint x="600" y="690" as="targetPoint"/>
                    </mxGeometry>
                </mxCell>
                <mxCell id="44" value="&lt;span&gt;«boundary»&lt;/span&gt;&lt;br&gt;&lt;b&gt;FilterSearchUI&lt;/b&gt;" style="shape=umlLifeline;perimeter=lifelinePerimeter;whiteSpace=wrap;html=1;container=1;collapsible=0;recursiveResize=0;outlineConnect=0;rounded=0;shadow=0;glass=0;strokeWidth=1;verticalAlign=top;" vertex="1" parent="1">
                    <mxGeometry x="600" y="670" width="82" height="380" as="geometry"/>
                </mxCell>
                <mxCell id="45" value="" style="html=1;points=[];perimeter=orthogonalPerimeter;" vertex="1" parent="1">
                    <mxGeometry x="636" y="750" width="10" height="100" as="geometry"/>
                </mxCell>
                <mxCell id="46" value="fillsForm()" style="html=1;verticalAlign=bottom;endArrow=block;entryX=0.005;entryY=0.482;entryDx=0;entryDy=0;entryPerimeter=0;" edge="1" parent="1" target="45">
                    <mxGeometry width="80" relative="1" as="geometry">
                        <mxPoint x="70" y="800" as="sourcePoint"/>
                        <mxPoint x="630" y="800" as="targetPoint"/>
                    </mxGeometry>
                </mxCell>
                <mxCell id="9sE8CWYjySVi89K2_Rz9-49" value="onClickSaveChanges(scelte)" style="html=1;verticalAlign=bottom;endArrow=block;endSize=8;strokeWidth=1;endFill=1;exitX=0.059;exitY=0.915;exitDx=0;exitDy=0;exitPerimeter=0;" edge="1" parent="1">
                    <mxGeometry x="-0.0429" relative="1" as="geometry">
                        <mxPoint x="635.9999999999997" y="840.2400000000002" as="sourcePoint"/>
                        <mxPoint x="360" y="840" as="targetPoint"/>
                        <mxPoint as="offset"/>
                    </mxGeometry>
                </mxCell>
                <mxCell id="9sE8CWYjySVi89K2_Rz9-52" value="" style="html=1;points=[];perimeter=orthogonalPerimeter;" vertex="1" parent="1">
                    <mxGeometry x="536" y="890" width="10" height="80" as="geometry"/>
                </mxCell>
                <mxCell id="9sE8CWYjySVi89K2_Rz9-53" value="&lt;span style=&quot;font-size: 12px ; background-color: rgb(248 , 249 , 250)&quot;&gt;applyChanges(scelte)&lt;/span&gt;" style="html=1;verticalAlign=bottom;endArrow=block;" edge="1" parent="1">
                    <mxGeometry width="80" relative="1" as="geometry">
                        <mxPoint x="356" y="898" as="sourcePoint"/>
                        <mxPoint x="536" y="898" as="targetPoint"/>
                    </mxGeometry>
                </mxCell>
            </root>
        </mxGraphModel>
    </diagram>
</mxfile>